<svg width="150" height="56" viewBox="0 0 150 56" fill="none" xmlns="http://www.w3.org/2000/svg">
<g clip-path="url(#clip0_844_1810)">
<path fill-rule="evenodd" clip-rule="evenodd" d="M39.8881 10.3546C39.0799 9.80947 37.4036 7.32615 33.8718 7.32615C31.7171 7.32615 30.9191 7.40182 29.0515 8.33564C27.4402 9.14049 26.2134 10.3323 25.2889 11.8749C22.3466 16.7848 23.2317 25.4094 28.9866 28.3622C32.1118 29.9667 36.1905 29.8687 38.7501 27.2787L39.8898 26.0818V29.0122H45.9078V0H39.8898V10.3546H39.8881ZM35.2302 24.2244C33.2993 24.2244 32.3681 23.8289 31.0797 22.4428C28.9712 20.1761 29.1882 14.826 32.5116 13.0873C34.0495 12.2825 35.6915 12.2876 37.2379 13.12C37.8325 13.4399 38.2238 13.8509 38.6527 14.3341C40.3409 16.231 40.3802 20.3464 38.6988 22.3413C37.8752 23.3181 36.5783 24.2244 35.2319 24.2244H35.2302Z" fill="white"/>
<path fill-rule="evenodd" clip-rule="evenodd" d="M128.4 10.647V7.71656H122.384V35.3599H128.4V26.3742C128.937 26.7353 129.538 27.6863 130.857 28.3931C134.005 30.0819 138.071 29.6176 140.742 27.4645C143.191 25.4885 144.607 22.2399 144.607 19.048V17.6808C144.607 12.2223 140.458 7.32617 135.484 7.32617C132.402 7.32617 130.973 7.91261 128.955 10.0348C128.74 10.2601 128.643 10.4819 128.398 10.647M133.058 12.5026C134.989 12.5026 135.92 12.8982 137.208 14.2843C138.553 15.7289 138.927 18.4839 138.215 20.625C137.972 21.3542 137.69 21.8546 137.253 22.3929C135.713 24.2881 133.225 24.7765 131.049 23.6071C127.917 21.9234 127.604 16.7418 129.588 14.3858C129.976 13.9266 130.442 13.4554 130.984 13.1544C131.493 12.8724 132.32 12.5026 133.055 12.5026H133.058Z" fill="white"/>
<path fill-rule="evenodd" clip-rule="evenodd" d="M1.84369 9.27981C1.84369 9.42943 3.17818 13.6153 3.2995 13.8716C5.41658 12.8483 12.0412 11.4364 13.3364 14.9051C13.5876 15.5758 13.5876 15.9249 13.5876 16.802C13.2168 16.7711 13.0288 16.6524 12.6734 16.5492C12.2958 16.4409 12.0293 16.379 11.6568 16.3033C8.72975 15.7151 4.68184 15.8888 2.38193 17.6361C0.321236 19.2045 0 20.8744 0 23.4437C0 26.8574 3.3388 29.4026 6.6964 29.4026C8.56914 29.4026 9.46108 29.3803 11.1612 28.6202C11.5764 28.4344 12.0668 28.0991 12.424 27.8394L13.5876 26.8626V29.0105H19.4108V15.8235C19.4108 10.6883 15.7952 7.5205 10.676 7.5205C8.49395 7.5205 7.31666 7.49299 5.16199 8.02783C4.69551 8.14305 1.84369 8.98401 1.84369 9.27981ZM9.22015 25.2013C5.04408 25.2013 5.16882 21.4281 7.08769 20.3206C8.75538 19.3576 11.0468 19.5571 12.8238 20.1091C13.1519 20.2106 13.3843 20.3447 13.685 20.4152C13.685 22.3448 13.673 22.9639 12.6444 23.9596C11.9062 24.6716 10.6367 25.2013 9.22015 25.2013Z" fill="white"/>
<path fill-rule="evenodd" clip-rule="evenodd" d="M72.3039 15.5173C71.5503 16.286 71.6033 16.9945 68.907 17.2834C66.6156 17.5294 66.0398 17.1321 64.3465 16.6867C64.1688 18.9946 60.8146 20.2896 58.9333 18.5371C58.4873 18.1227 57.9166 17.3832 57.8449 16.6437C57.1067 16.8518 56.7444 17.0771 55.8252 17.2336C55.0221 17.3694 54.1182 17.3763 53.2809 17.292C51.9584 17.1613 50.7691 16.8965 50.06 15.8474L49.79 15.4915C49.79 17.9507 50.2548 19.9112 50.9673 21.6705C51.9122 24.0025 53.8585 26.1109 55.5398 28.0095L58.8906 31.965C59.4664 32.5875 59.9055 33.5093 61.0504 33.5093C62.1149 33.5093 62.6788 32.6391 63.1709 32.0234C63.3212 31.836 63.4374 31.7517 63.5878 31.5643L66.5268 28.0749C67.8151 26.4084 69.8297 24.5391 70.8122 22.3275C70.942 22.0368 70.9848 21.9251 71.1112 21.6516C71.9297 19.9026 72.3073 17.5345 72.3073 15.5173" fill="#FDE300"/>
<path fill-rule="evenodd" clip-rule="evenodd" d="M78.515 7.71663H75.9912V12.8931H78.515V23.7361C78.515 24.4326 78.7234 25.5453 78.9148 26.0698C79.67 28.1473 81.5001 29.4027 83.9503 29.4027C85.5035 29.4027 86.1101 29.4784 87.6394 29.0123C88.3058 28.8094 88.9432 28.3571 89.4831 28.2298V23.3457C88.7227 23.4094 84.533 25.7276 84.533 21.6845V12.8931H89.5805V7.71663H84.533V2.24609H78.515V7.71663Z" fill="white"/>
<path fill-rule="evenodd" clip-rule="evenodd" d="M49.7883 15.4933L50.0582 15.8493C50.7674 16.8983 51.9566 17.1615 53.2791 17.2939C54.1181 17.3764 55.022 17.3713 55.8234 17.2354C56.7427 17.0789 57.1049 16.8554 57.8431 16.6455C58.0396 16.4632 58.1216 16.4478 58.2856 16.2706C59.14 15.342 59.9567 12.8982 60.3361 12.31C60.4916 11.6892 60.7171 11.4949 61.4519 11.6393L61.7765 12.31C61.9628 12.7228 62.1251 13.1183 62.3045 13.4829C62.501 13.8819 62.6428 14.2637 62.8547 14.6867C63.2921 15.5638 63.6134 16.1399 64.343 16.6885C66.0363 17.1357 66.6121 17.5312 68.9035 17.2853C71.5998 16.9964 71.5469 16.2878 72.3004 15.5191C72.367 15.2525 72.8472 14.2465 73.0984 13.2095C73.4128 11.9076 73.1001 11.7425 74.1441 11.0391V8.49907C73.4367 8.15856 70.8446 7.64436 69.874 7.67359C63.3075 7.48442 63.8218 8.83442 61.0418 8.83099C59.3826 8.83099 58.4702 8.205 56.8896 7.88512C55.3159 7.56697 53.8669 7.61512 52.2095 7.67531C52.013 7.70455 51.4269 7.72174 51.0971 7.7699C50.2223 7.9006 48.5973 8.1792 47.9395 8.49735V11.0374C49.0587 11.7924 48.5067 11.316 48.9937 13.1029C49.1014 13.495 49.1936 13.9352 49.3372 14.3187C49.4995 14.7487 49.6601 15.0617 49.7831 15.4916M54.9947 9.46385C54.7367 9.83188 53.6807 10.052 53.7542 9.38647C53.8105 8.88602 54.8392 8.88086 54.9947 9.46385ZM64.4831 13.7151C63.5826 14.0814 63.2409 11.2335 63.2375 10.8414C63.2255 9.46901 64.5617 9.20933 65.8039 9.14054C66.9282 9.07863 67.0786 9.66679 66.3319 9.90755C65.7339 10.1002 65.1751 9.90927 64.7326 10.353C63.6971 11.3917 64.7736 13.0065 64.4831 13.7151ZM67.2649 9.74933C67.1794 9.51545 67.1811 9.32455 67.2751 9.10615C67.7518 8.98404 68.097 9.06315 68.4011 9.2764C68.3328 9.81984 67.7775 9.85424 67.2649 9.74933ZM50.2735 11.8199C50.2735 11.2627 50.1727 10.5129 50.3368 10.0262C50.4854 9.5808 50.834 9.22309 51.3517 9.18181C51.7652 8.84302 52.8725 9.01672 53.3407 9.1457L53.3133 9.80609C52.4094 10.1174 51.5414 9.88519 51.1706 10.8603C50.8613 11.6703 51.3346 13.2697 50.8579 13.7804C50.2189 13.6463 50.2735 12.4167 50.2752 11.8216L50.2735 11.8199Z" fill="#222222"/>
<path fill-rule="evenodd" clip-rule="evenodd" d="M99.9646 11.8199V7.71657H93.9482V29.0106H99.9646V21.5864C99.9646 16.6937 101.663 13.6738 106.758 13.6738V7.32446C104.906 7.32446 103.522 7.47064 102.077 8.76562C101.607 9.18696 101.272 9.60486 100.915 10.1363C100.523 10.7193 100.197 11.5482 99.9646 11.8182" fill="white"/>
<path fill-rule="evenodd" clip-rule="evenodd" d="M66.6749 43.4669C66.6373 45.1385 65.7317 45.663 66.4801 46.7877C68.3067 46.7877 68.7031 45.8264 69.4891 45.6166C69.4891 47.1575 71.5293 47.2555 73.1065 45.7404C73.479 45.3827 74.0069 44.767 74.1436 44.2442C74.1761 44.1221 74.1829 43.9845 74.1847 43.9776C74.2633 43.7007 74.2359 43.7523 75.1227 43.57C75.4696 43.4978 76.1172 43.3774 76.476 43.3688C76.4487 43.6939 76.3803 43.8143 76.2829 44.0533C76.1702 44.3302 76.1428 44.4454 76.0454 44.7911C75.8934 45.3328 75.8062 45.7215 75.6883 46.289C75.6148 46.6467 75.3329 47.7353 76.054 47.5616C76.517 47.4498 76.5222 46.7069 76.7084 46.2408C76.8246 45.9485 76.8605 45.9244 76.9596 45.6148L78.8033 40.8288C79.2937 40.5914 80.4983 40.5863 81.1322 40.4384L80.3223 42.0653C80.242 42.2166 80.1856 42.3026 80.1156 42.4436C80.0079 42.662 80.0045 42.7033 79.89 42.9011L79.0938 44.5417C78.682 45.4704 77.9677 46.5573 78.5128 47.3759C78.7964 47.3088 78.5999 47.3931 78.8494 47.2245C78.8733 47.209 78.9348 47.154 78.9571 47.1368L79.4338 46.8359C79.6252 46.7172 79.6047 46.7052 79.755 46.5727C80.2369 46.1428 82.9657 44.2683 83.4629 44.1513C83.4338 44.2734 81.7747 47.2125 84.4608 46.5229C85.3408 46.2976 86.2754 45.35 87.6373 45.0301C87.4801 45.7094 87.2494 45.5632 87.2494 46.5934C88.3515 47.1798 88.929 46.7 89.7783 46.2081C90.2704 45.9227 91.5707 45.1557 92.1021 45.0301C91.8424 45.5237 91.7518 46.105 91.5194 46.5934L91.8321 46.8651C92.7087 46.8857 92.6557 46.6501 93.1444 46.1755C93.3853 45.9416 93.4947 45.9106 93.7288 45.6888L95.4563 44.3027C95.7621 44.0688 96.42 43.558 96.76 43.4669C96.7498 43.9106 96.5447 44.7429 96.4302 45.1866C96.2098 46.0345 96.1398 46.148 96.5669 46.7877C97.3512 46.7877 97.5392 46.743 98.0894 46.4644C98.6584 46.1755 99.0428 45.8401 99.3812 45.8109C99.388 46.129 99.3965 46.1686 99.5794 46.2941C99.7554 46.4145 99.8596 46.3973 100.15 46.4042C101.426 46.4334 101.765 46.1411 102.775 45.4153C103.028 45.233 102.946 45.2107 103.263 45.1247C103.209 45.3603 102.99 45.8298 102.893 46.0224C102.646 46.5074 102.751 46.1669 102.137 46.6295C100.164 48.1222 96.3055 51.1817 95.8253 53.7579C95.3298 56.42 99.1829 54.8705 101.498 51.4551C101.883 50.8859 102.113 50.3803 102.469 49.7938C102.879 49.1163 103.137 48.3785 103.378 47.9743C104.581 45.9571 103.376 46.7757 105.963 45.2038C106.534 44.8564 107.022 44.5658 107.603 44.2167C108 43.9776 108.032 43.8005 108.379 43.6302C108.876 43.3878 108.866 43.5528 109.184 43.073C108.567 43.0868 107.417 43.6664 106.92 43.9192L104.721 44.9287C104.851 44.3646 105.109 43.9604 105.109 43.2691C103.957 42.4935 104.622 43.3086 101.673 45.0851C101.426 45.233 101.288 45.2915 101.054 45.4394C100.794 45.6028 100.716 45.6819 100.355 45.7129C100.562 45.319 100.712 44.9476 101.01 44.6139C101.71 43.828 102.559 43.0455 103.446 42.4746C103.699 42.3129 103.817 42.2871 103.849 41.9036C103.149 41.9036 102.52 42.2837 101.948 42.6259C101.64 42.8099 101.497 42.9613 101.256 43.1986C100.982 43.4669 100.808 43.5442 100.526 43.8314L99.4598 45.0043C98.7814 45.4394 98.0347 45.6733 97.3495 46.0052C97.3717 45.0009 97.9322 43.5632 97.9322 42.7824C97.124 42.3525 96.8232 42.3972 95.5622 43.2295C94.8189 43.7197 94.2602 44.2665 93.5647 44.736L94.2636 43.0885C94.4122 42.7119 94.3285 42.8598 94.2431 42.49C93.1171 42.2269 93.3768 42.5399 92.9974 43.288C92.5378 44.1926 92.5856 44.3199 92.0013 44.5314C91.4272 44.7395 90.8701 44.8977 90.3455 45.1127C89.7936 45.338 89.3323 45.5684 88.7103 45.7146C88.7479 45.2588 89.1238 44.7756 89.3477 44.4024C89.6655 43.8658 90.0773 43.5477 89.8756 43.0782C89.7953 42.7755 89.6433 42.6878 89.3203 42.7256C88.9735 42.7669 88.8761 42.9595 88.7257 43.19C88.425 43.6509 88.1909 44.0567 87.9346 44.5434C86.0652 44.5434 85.9251 45.3741 84.0524 45.8143C84.1071 45.1539 84.5257 44.5125 84.8384 43.9622C84.9324 43.7953 84.9512 43.8194 85.011 43.644C85.1186 43.3327 85.0469 43.2897 84.8709 43.1332C84.307 42.6276 83.075 43.2399 82.5368 43.6044C82.1438 43.871 81.8755 44.0602 81.5133 44.3336C81.1339 44.6191 80.8486 44.8667 80.4607 45.1281C80.5649 44.6793 80.8691 43.9088 81.0741 43.4995C81.3458 42.9578 81.585 42.5502 81.8379 42.0223L83.3535 39.054C83.5688 38.698 84.1908 37.8295 83.5398 37.6197C82.8819 37.4082 82.465 38.1786 82.2685 38.5484C82.125 38.8184 82.0344 38.9577 81.8738 39.2259C81.4056 40.0136 81.5782 39.7591 81.3219 39.8433C81.1237 39.9087 79.4714 40.048 79.1963 40.048C79.2937 39.6817 81.081 36.8235 81.1374 36.1407C79.9396 35.5027 79.6593 36.225 79.362 36.894C78.899 37.9379 78.2821 38.9147 77.896 39.9121C77.5593 40.7806 77.3543 40.3558 75.7379 40.7686C75.2133 40.9027 75.1193 41.0936 75.1193 41.7093C75.5892 41.7093 75.4012 41.7093 75.6917 41.6009L77.3509 41.1228C77.2244 41.6732 76.9134 42.11 76.8656 42.6861C76.3017 42.6861 75.7003 42.6483 75.1586 42.7274C72.9561 43.0472 73.8703 42.7239 73.0415 42.5296C71.555 42.1822 71.6541 42.3009 71.162 42.8082C70.8766 43.1023 70.5468 43.3792 70.3042 43.7025C69.8121 44.3594 69.8497 44.6225 69.6856 44.8392C69.5028 45.08 69.3319 45.0078 68.5494 45.4549C68.1136 45.7025 67.6813 45.804 67.2559 46.0087C67.2781 45.0043 67.8385 43.5666 67.8385 42.7858C67.0303 42.3559 66.7296 42.4006 65.4686 43.233C64.7253 43.7231 64.1648 44.27 63.4711 44.7395L64.17 43.092C64.3186 42.7153 64.2349 42.8632 64.1495 42.4935C63.1413 42.2579 63.4164 42.208 62.4681 44.1221C61.7556 45.5632 61.706 46.0259 61.4326 46.5968L61.7453 46.8685C62.6219 46.8892 62.5689 46.6536 63.0576 46.1789C63.2968 45.945 63.4079 45.9141 63.642 45.6922C63.8863 45.4618 63.9154 45.4033 64.2041 45.1849C64.7133 44.7997 66.3007 43.57 66.6732 43.4703M70.6528 46.105C70.6528 44.5985 72.2726 43.0765 72.3034 43.0765C72.6383 43.0765 72.6793 43.1487 72.9834 43.1745C72.9834 43.9501 72.7545 44.3886 72.2487 45.0731C72.0693 45.3173 71.8266 45.479 71.5686 45.6578C71.1876 45.9209 71.0321 45.9227 70.6545 46.105H70.6528ZM96.6643 54.1156C96.6643 52.6349 97.5751 51.9143 98.3406 51.1146C98.6327 50.8085 98.7387 50.5918 99.0633 50.2805C99.3572 49.9985 99.5401 49.9056 99.8425 49.5978C100.131 49.302 100.359 49.1558 100.668 48.8669C101.037 48.5212 102.013 47.6613 102.39 47.5719C102.344 48.1308 99.2752 54.0588 96.6643 54.1173V54.1156Z" fill="white"/>
<path d="M116.656 7.71655H110.64V29.0105H116.656V7.71655Z" fill="white"/>
<path fill-rule="evenodd" clip-rule="evenodd" d="M52.2148 7.67523C53.8706 7.61504 55.3196 7.56688 56.895 7.88504C58.4738 8.20319 59.388 8.82918 61.0471 8.8309C63.8255 8.83434 63.3129 7.48261 69.8794 7.67351C69.5616 7.02516 68.861 6.25299 68.3518 5.73878C64.1074 1.46692 57.898 1.53571 53.7937 5.68891L52.9684 6.61586C52.7223 6.89102 52.372 7.35535 52.2166 7.67351" fill="#FDE300"/>
<path fill-rule="evenodd" clip-rule="evenodd" d="M131.991 44.5416C131.62 45.0988 131.117 45.3998 131.117 46.2992C131.948 46.7412 132.496 46.6191 133.286 46.2356C134.632 45.5838 134.374 45.4599 135 45.1263C135 45.6646 134.947 45.9879 135.287 46.2046C136.368 46.8959 137.441 45.5975 138.202 45.4187C138.161 45.9243 137.84 46.0343 138.104 46.5915C138.952 47.0008 139.205 46.2631 139.403 45.6508C139.914 44.0618 141.672 43.5097 143.118 43.0403C143.543 42.9027 143.721 42.901 143.83 42.4882C143.383 42.3833 142.598 42.4985 142.026 42.6258C141.325 42.7823 140.963 42.9869 140.433 43.269C140.579 42.6447 140.787 42.7273 140.684 42.428C140.599 42.1804 140.288 42.1597 140.059 42.189C140.003 42.1959 139.765 42.1735 139.531 42.4573L139.116 43.4066C138.532 44.8976 138.496 44.6706 136.782 45.4531C136.44 45.6096 136.532 45.6113 136.066 45.6113C136.167 44.3954 136.922 44.1598 136.939 43.3636C136.678 43.238 136.471 43.1692 136.066 43.1692L135.323 43.9827C134.554 44.447 132.924 45.6336 132.185 45.8073C132.525 45.2948 132.438 45.3499 132.871 44.9354L134.041 43.9655C134.851 43.3498 135.844 42.9973 136.455 42.5845C136.341 42.3661 136.293 42.2904 136.163 42.0961C135.403 42.0961 135.543 42.005 135.036 42.3283L133.255 43.3704C132.801 43.4994 132.59 43.539 132.155 43.7282C131.488 44.0205 130.894 44.3782 130.231 44.6242C129.44 44.9182 128.698 44.9285 127.621 44.9285C128.337 44.3026 128.29 44.6379 129.313 43.3103C129.59 42.9525 129.78 42.7376 130.07 42.4125L130.837 41.4254C131.792 40.2405 132.126 39.7538 132.92 38.4416C133.158 38.0495 133.457 37.6609 133.185 37.2877C132.797 36.7563 131.634 36.5757 130.755 37.3358C130.024 37.9704 128.93 39.2155 128.365 40.0101L128.24 40.1769C128.228 40.1923 128.208 40.213 128.194 40.2285C128.04 40.4108 128.139 40.2611 127.979 40.5002C127.054 41.876 127.076 42.0015 126.376 43.1847C126.202 43.4788 126.266 43.3928 126.137 43.7264L124.38 47.9175C123.944 49.1712 122.386 54.4009 125.381 53.5187C125.899 53.3674 126.039 53.2969 126.482 52.8669C127.627 51.7525 127.907 51.3381 128.433 49.7525C128.753 48.7894 128.855 47.871 128.633 46.8392C128.496 46.2098 128.221 46.0447 128.105 45.6113C129.212 45.6113 129.383 45.6233 130.212 45.2897C130.538 45.159 130.824 45.104 131.141 44.9543C131.428 44.8185 131.681 44.619 131.987 44.5364M127.235 44.2492C127.341 43.7952 127.912 42.7393 128.179 42.3661L130.436 38.973C130.716 38.5999 131.51 37.8346 131.991 37.7056C130.665 40.4881 129.78 41.2964 127.943 43.4977C127.657 43.8382 127.61 43.9982 127.235 44.2492ZM125.197 53.0406C124.086 51.9795 125.081 49.4395 125.428 48.3887C125.626 47.7902 125.749 47.4858 125.973 46.9837C126.219 46.4333 126.133 46.4196 126.555 45.6164C128.44 46.8856 127.637 49.111 126.902 50.7533C126.567 51.5014 125.894 52.5711 125.195 53.0406H125.197Z" fill="white"/>
<path fill-rule="evenodd" clip-rule="evenodd" d="M0 45.1279H58.7161C58.7793 44.8906 58.9844 44.5742 59.104 44.3472H0V45.1279Z" fill="#FDE300"/>
<path d="M116.851 0H110.445V5.37251H116.851V0Z" fill="white"/>
<path fill-rule="evenodd" clip-rule="evenodd" d="M112.969 45.7145C113.054 44.6844 114.438 43.7884 114.134 43.0764C114.061 42.7978 114.045 42.76 113.724 42.7222C113.495 42.6947 113.295 42.7961 113.145 42.9578C112.964 43.1538 112.658 43.7145 112.502 43.9741C112.169 44.5279 111.515 45.675 111.515 46.399C111.515 46.81 112.355 46.8874 112.388 46.8874C113.227 46.8874 115.571 45.2433 116.138 45.0972C116.535 44.9957 116.427 45.2261 116.754 45.2261C117.613 45.2261 118.016 45.0301 118.985 45.0301C118.908 45.0971 118.942 45.08 118.813 45.1505C118.674 45.2261 118.715 45.2021 118.544 45.2708C117.736 45.5993 115.296 46.5314 115.296 47.4721C115.296 47.7353 115.342 47.7404 115.393 47.9605C116.405 48.1979 117.029 47.9691 118.071 47.3345C118.356 47.1609 118.549 47.0147 118.828 46.8272C120.88 45.4497 119.651 45.546 120.586 45.276C120.795 45.2158 120.977 45.1831 121.13 45.1401C121.753 44.9579 122.649 44.8185 122.961 44.3473C122.392 43.9501 121.803 44.2338 120.866 44.4866C119.682 44.8048 120.12 44.3473 119.176 44.3473L117.333 44.4454C117.497 44.1994 117.697 44.0945 117.97 43.914C118.356 43.6594 118.404 43.7007 118.847 43.5253C119.115 43.4204 119.951 43.1108 120.029 42.8426C120.154 42.4178 119.747 42.49 119.371 42.49C118.479 42.49 116.877 43.5975 116.342 44.227C115.762 44.908 116.007 44.5468 114.741 45.0559C114.131 45.3018 113.637 45.5563 112.967 45.7128M116.268 47.3758C116.425 47.1385 117.085 46.6191 117.398 46.4609C117.907 46.2047 118.425 46.0602 118.889 45.8126C118.814 46.0946 118.862 45.945 118.698 46.1084L117.791 46.7584C117.384 46.9751 116.762 47.3345 116.27 47.3758H116.268Z" fill="white"/>
<path fill-rule="evenodd" clip-rule="evenodd" d="M64.483 13.7151C64.7735 13.0065 63.697 11.3917 64.7325 10.3529C65.1751 9.90925 65.7321 10.1001 66.3318 9.90753C67.0785 9.66677 66.9282 9.07861 65.8039 9.14052C64.5616 9.20931 63.2254 9.469 63.2374 10.8414C63.2408 11.2335 63.5825 14.0831 64.483 13.7151Z" fill="#FDE300"/>
<path fill-rule="evenodd" clip-rule="evenodd" d="M51.3496 9.1817L50.3756 11.6306C50.2816 11.8353 50.3414 11.7183 50.2714 11.8198C50.2697 12.4148 50.215 13.6462 50.854 13.7786C51.3308 13.2696 50.8575 11.6685 51.1667 10.8585C51.5375 9.88508 52.4055 10.1155 53.3094 9.80425L53.3368 9.14386C52.8686 9.01488 51.7614 8.84119 51.3478 9.17998" fill="#FDE300"/>
<path fill-rule="evenodd" clip-rule="evenodd" d="M90.7435 41.1228C90.7435 40.1614 89.491 40.9542 89.4141 41.6542C89.3048 42.674 90.7435 41.6146 90.7435 41.1228Z" fill="white"/>
<path fill-rule="evenodd" clip-rule="evenodd" d="M115.006 41.1228C115.006 40.1614 113.754 40.9542 113.677 41.6542C113.567 42.674 115.006 41.6146 115.006 41.1228Z" fill="white"/>
<path fill-rule="evenodd" clip-rule="evenodd" d="M54.9942 9.46375C54.8387 8.88075 53.81 8.88591 53.7537 9.38636C53.6802 10.0519 54.7362 9.83006 54.9942 9.46375Z" fill="#FDE300"/>
<path fill-rule="evenodd" clip-rule="evenodd" d="M67.2644 9.74938C67.7753 9.85428 68.3306 9.81989 68.4007 9.27644C68.0965 9.06319 67.7514 8.98409 67.2746 9.10619C67.1807 9.3246 67.1789 9.51549 67.2644 9.74938Z" fill="#FDE300"/>
<path fill-rule="evenodd" clip-rule="evenodd" d="M60.3379 12.3084C60.8983 12.1931 61.2076 12.1364 61.7783 12.3084L61.4537 11.6377C60.7189 11.4932 60.4934 11.6875 60.3379 12.3084Z" fill="#FDE300"/>
<path fill-rule="evenodd" clip-rule="evenodd" d="M144.099 6.81538V7.07506C144.099 7.47404 144.24 7.94009 144.375 8.2101L144.563 8.55233C144.755 8.8808 145.206 9.3159 145.546 9.50679C145.949 9.73208 146.426 9.91437 146.908 9.91437C147.285 9.91437 147.42 9.92125 147.8 9.82322C148.102 9.74583 148.287 9.64953 148.543 9.51023C148.622 9.46723 148.685 9.41908 148.755 9.37093C149.302 8.99602 149.741 8.35284 149.907 7.70277C150.076 7.03894 150.019 6.28053 149.717 5.67346C149.594 5.42582 149.592 5.43441 149.457 5.22804C149.365 5.08702 149.252 4.9632 149.134 4.84626C148.862 4.57282 148.644 4.42836 148.312 4.25982C148.041 4.12396 147.583 3.97778 147.178 3.97778H146.92C146.07 3.97778 145.11 4.51779 144.64 5.22976C144.615 5.26932 144.591 5.29511 144.569 5.33467L144.381 5.67518C144.246 5.9469 144.1 6.40951 144.1 6.8171M144.697 7.00455C144.692 6.98391 144.707 6.76206 144.71 6.72423C144.719 6.64512 144.733 6.55053 144.748 6.46799C144.763 6.39232 144.786 6.30461 144.809 6.2341C144.97 5.74741 145.257 5.33295 145.674 5.03027C145.758 4.97008 145.947 4.8497 146.04 4.81014C146.276 4.70868 146.45 4.64505 146.715 4.60721C147.051 4.55734 147.431 4.58314 147.755 4.69148C147.897 4.73963 148.041 4.79295 148.165 4.8669C148.234 4.90817 148.285 4.93569 148.348 4.97868C148.468 5.05951 148.577 5.1455 148.68 5.24696C148.782 5.35015 148.866 5.44129 148.953 5.56168C148.996 5.62187 149.03 5.67518 149.068 5.74053C149.103 5.80072 149.143 5.86435 149.172 5.9297C149.235 6.0776 149.283 6.19283 149.326 6.3648C149.413 6.72079 149.423 7.06302 149.351 7.42589C149.221 8.07939 148.806 8.64175 148.249 8.97883C147.986 9.13876 147.697 9.24023 147.384 9.28666C147.244 9.3073 146.983 9.31934 146.829 9.30214C146.751 9.29354 146.658 9.27978 146.575 9.2643C146.416 9.23163 146.265 9.18004 146.13 9.12328C145.865 9.0115 145.606 8.83609 145.419 8.64863C145.037 8.26341 144.806 7.83519 144.724 7.28659C144.717 7.24187 144.709 7.18856 144.707 7.15073C144.702 7.0527 144.717 7.12493 144.695 7.00971L144.697 7.00455Z" fill="white"/>
<path fill-rule="evenodd" clip-rule="evenodd" d="M145.749 8.40606C145.749 8.43358 145.758 8.44045 145.785 8.44045H146.521C146.549 8.44045 146.557 8.43186 146.557 8.40606V7.26242C146.88 7.26242 146.978 7.22459 147.169 7.42408C147.287 7.54618 147.594 8.253 147.692 8.44045H148.534C148.529 8.38026 148.469 8.29256 148.444 8.2358C148.408 8.15841 148.382 8.09822 148.346 8.02771C148.244 7.82134 148.051 7.40344 147.926 7.23835C147.844 7.13 147.728 7.01478 147.574 6.97866C147.591 6.96663 147.716 6.92191 147.794 6.87032C148.003 6.73446 148.148 6.52637 148.148 6.23573C148.148 5.92102 148.104 5.66477 147.813 5.48936C147.62 5.37413 147.34 5.31738 147.037 5.31738H145.751V8.40434L145.749 8.40606ZM146.955 6.69834H146.557V5.90898C146.937 5.90898 147.353 5.84535 147.353 6.29764C147.353 6.56936 147.205 6.69834 146.955 6.69834Z" fill="white"/>
</g>
<defs>
<clipPath id="clip0_844_1810">
<rect width="150" height="55.1095" fill="white"/>
</clipPath>
</defs>
</svg>
