<svg width="132" height="48" viewBox="0 0 132 48" fill="none" xmlns="http://www.w3.org/2000/svg">
<path fill-rule="evenodd" clip-rule="evenodd" d="M34.8705 9.01942C34.1639 8.54455 32.6986 6.38145 29.611 6.38145C27.7273 6.38145 27.0298 6.44736 25.3971 7.26077C23.9885 7.96183 22.916 8.99994 22.1078 10.3436C19.5356 14.6204 20.3094 22.1328 25.3403 24.7049C28.0724 26.1025 31.638 26.0171 33.8756 23.7612L34.872 22.7186V25.2711H40.133V0H34.872V9.01942H34.8705ZM30.7985 21.1007C29.1106 21.1007 28.2965 20.7562 27.1702 19.5488C25.3269 17.5745 25.5166 12.9142 28.4219 11.3997C29.7663 10.6987 31.2018 10.7032 32.5537 11.4282C33.0735 11.7068 33.4156 12.0648 33.7905 12.4858C35.2663 14.1381 35.3007 17.7228 33.8308 19.4604C33.1108 20.3113 31.9771 21.1007 30.8 21.1007H30.7985Z" fill="white"/>
<path fill-rule="evenodd" clip-rule="evenodd" d="M112.249 9.27446V6.72188H106.989V30.8006H112.249V22.9736C112.718 23.2882 113.244 24.1166 114.397 24.7323C117.148 26.2033 120.703 25.7988 123.038 23.9233C125.179 22.2021 126.417 19.3724 126.417 16.5922V15.4013C126.417 10.6466 122.79 6.38184 118.442 6.38184C115.747 6.38184 114.498 6.89265 112.734 8.74118C112.546 8.93741 112.461 9.13065 112.247 9.27446M116.321 10.8908C118.009 10.8908 118.823 11.2353 119.949 12.4427C121.125 13.701 121.452 16.1008 120.829 17.9658C120.617 18.601 120.37 19.0369 119.988 19.5058C118.642 21.1565 116.467 21.582 114.564 20.5633C111.826 19.0968 111.553 14.5833 113.287 12.5311C113.626 12.1311 114.034 11.7207 114.507 11.4585C114.952 11.2129 115.675 10.8908 116.318 10.8908H116.321Z" fill="white"/>
<path fill-rule="evenodd" clip-rule="evenodd" d="M1.61176 8.08344C1.61176 8.21376 2.77838 11.8599 2.88444 12.0831C4.7352 11.1918 10.5265 9.96192 11.6587 12.9834C11.8783 13.5676 11.8783 13.8717 11.8783 14.6357C11.5542 14.6087 11.3899 14.5053 11.0792 14.4155C10.7491 14.3211 10.516 14.2672 10.1904 14.2012C7.63159 13.6889 4.09289 13.8402 2.08229 15.3622C0.280826 16.7284 0 18.1829 0 20.4209C0 23.3944 2.9188 25.6115 5.85402 25.6115C7.49118 25.6115 8.27092 25.592 9.7572 24.9299C10.1202 24.7681 10.5489 24.476 10.8611 24.2498L11.8783 23.3989V25.2699H16.969V13.7833C16.969 9.31029 13.8083 6.55099 9.33297 6.55099C7.42545 6.55099 6.39625 6.52702 4.51263 6.9929C4.10484 7.09326 1.61176 7.82578 1.61176 8.08344ZM8.0603 21.9519C4.40956 21.9519 4.51861 18.6653 6.19609 17.7006C7.654 16.8617 9.65712 17.0354 11.2106 17.5163C11.4974 17.6047 11.7006 17.7215 11.9635 17.7829C11.9635 19.4637 11.953 20.003 11.0538 20.8703C10.4085 21.4905 9.29862 21.9519 8.0603 21.9519Z" fill="white"/>
<path fill-rule="evenodd" clip-rule="evenodd" d="M63.2081 13.5166C62.5493 14.1862 62.5956 14.8034 60.2385 15.055C58.2354 15.2693 57.732 14.9232 56.2517 14.5352C56.0963 16.5456 53.1641 17.6735 51.5194 16.1471C51.1296 15.7861 50.6307 15.1419 50.5679 14.4978C49.9226 14.6791 49.6059 14.8753 48.8023 15.0116C48.1002 15.1299 47.31 15.1359 46.5781 15.0625C45.4219 14.9487 44.3823 14.718 43.7624 13.8042L43.5264 13.4941C43.5264 15.6363 43.9327 17.344 44.5556 18.8764C45.3816 20.9077 47.083 22.7442 48.5528 24.398L51.4821 27.8434C51.9855 28.3857 52.3694 29.1886 53.3702 29.1886C54.3008 29.1886 54.7938 28.4306 55.224 27.8943C55.3554 27.7311 55.457 27.6577 55.5884 27.4944L58.1577 24.455C59.284 23.0034 61.0451 21.3751 61.904 19.4487C62.0175 19.1955 62.0549 19.0981 62.1654 18.86C62.8809 17.3365 63.2111 15.2738 63.2111 13.5166" fill="#FDE300"/>
<path fill-rule="evenodd" clip-rule="evenodd" d="M68.6379 6.72166H66.4316V11.2306H68.6379V20.6755C68.6379 21.2822 68.8202 22.2514 68.9875 22.7082C69.6477 24.5178 71.2475 25.6114 73.3895 25.6114C74.7474 25.6114 75.2777 25.6773 76.6146 25.2713C77.1971 25.0945 77.7543 24.7006 78.2263 24.5897V20.3354C77.5616 20.3908 73.8989 22.4101 73.8989 18.8884V11.2306H78.3115V6.72166H73.8989V1.95654H68.6379V6.72166Z" fill="white"/>
<path fill-rule="evenodd" clip-rule="evenodd" d="M43.5254 13.4956L43.7614 13.8057C44.3813 14.7195 45.421 14.9487 46.5772 15.064C47.3106 15.1359 48.1008 15.1314 48.8014 15.0131C49.605 14.8768 49.9217 14.682 50.567 14.4993C50.7388 14.3405 50.8105 14.327 50.9539 14.1727C51.7007 13.3638 52.4147 11.2352 52.7464 10.7228C52.8823 10.1821 53.0795 10.0128 53.7218 10.1386L54.0056 10.7228C54.1684 11.0824 54.3103 11.4269 54.4672 11.7445C54.6389 12.092 54.7629 12.4246 54.9482 12.7931C55.3306 13.557 55.6114 14.0589 56.2492 14.5367C57.7295 14.9262 58.2329 15.2708 60.236 15.0565C62.5932 14.8049 62.5469 14.1877 63.2056 13.5181C63.2639 13.2859 63.6836 12.4096 63.9032 11.5063C64.1781 10.3723 63.9047 10.2285 64.8174 9.61583V7.40329C64.199 7.10669 61.9329 6.65879 61.0845 6.68426C55.344 6.51948 55.7936 7.6954 53.3633 7.69241C51.9128 7.69241 51.1152 7.14714 49.7335 6.86851C48.3577 6.59138 47.091 6.63333 45.6421 6.68576C45.4703 6.71122 44.9579 6.7262 44.6696 6.76815C43.9048 6.88199 42.4843 7.12467 41.9092 7.4018V9.61433C42.8876 10.272 42.4051 9.85701 42.8308 11.4134C42.9249 11.755 43.0056 12.1385 43.1311 12.4725C43.273 12.847 43.4134 13.1196 43.5209 13.4941M48.0769 8.24367C47.8513 8.56424 46.9282 8.75598 46.9924 8.17626C47.0417 7.74034 47.941 7.73585 48.0769 8.24367ZM56.3717 11.9467C55.5845 12.2658 55.2857 9.7851 55.2828 9.44356C55.2723 8.24816 56.4404 8.02197 57.5264 7.96205C58.5093 7.90812 58.6407 8.42043 57.9879 8.63015C57.4651 8.79793 56.9767 8.63165 56.5898 9.01813C55.6846 9.92292 56.6256 11.3295 56.3717 11.9467ZM58.8035 8.49233C58.7288 8.28861 58.7303 8.12233 58.8125 7.93209C59.2293 7.82573 59.531 7.89464 59.7969 8.08039C59.7371 8.55375 59.2517 8.58371 58.8035 8.49233ZM43.9496 10.2959C43.9496 9.81057 43.8615 9.15744 44.0049 8.73351C44.1349 8.34553 44.4396 8.03395 44.8922 7.998C45.2537 7.70289 46.2216 7.85419 46.6309 7.96654L46.607 8.54177C45.8168 8.81291 45.058 8.61068 44.7339 9.46004C44.4635 10.1656 44.8773 11.5587 44.4605 12.0036C43.9018 11.8868 43.9496 10.8157 43.9511 10.2974L43.9496 10.2959Z" fill="black"/>
<path fill-rule="evenodd" clip-rule="evenodd" d="M87.3894 10.2956V6.72143H82.1299V25.2696H87.3894V18.8027C87.3894 14.5409 88.8742 11.9105 93.3286 11.9105V6.37988C91.7093 6.37988 90.4994 6.50721 89.2357 7.6352C88.8249 8.00221 88.5321 8.36622 88.2199 8.8291C87.8779 9.33692 87.5925 10.059 87.3894 10.2941" fill="white"/>
<path fill-rule="evenodd" clip-rule="evenodd" d="M58.2879 37.8619C58.2551 39.3179 57.4634 39.7748 58.1176 40.7545C59.7145 40.7545 60.061 39.9171 60.7481 39.7344C60.7481 41.0766 62.5317 41.162 63.9104 39.8422C64.236 39.5306 64.6976 38.9944 64.8171 38.539C64.8455 38.4326 64.8515 38.3128 64.853 38.3068C64.9217 38.0656 64.8978 38.1105 65.673 37.9518C65.9763 37.8888 66.5424 37.784 66.8561 37.7765C66.8322 38.0596 66.7724 38.1645 66.6873 38.3727C66.5887 38.6139 66.5648 38.7142 66.4797 39.0153C66.3467 39.4872 66.2705 39.8257 66.1675 40.3201C66.1032 40.6317 65.8568 41.5799 66.4871 41.4286C66.8919 41.3312 66.8964 40.6841 67.0592 40.2781C67.1608 40.0235 67.1922 40.0025 67.2788 39.7329L68.8906 35.564C69.3193 35.3572 70.3724 35.3527 70.9266 35.2239L70.2185 36.641C70.1483 36.7728 70.099 36.8477 70.0378 36.9706C69.9437 37.1608 69.9407 37.1968 69.8406 37.369L69.1445 38.7981C68.7845 39.607 68.1601 40.5538 68.6366 41.2668C68.8846 41.2084 68.7128 41.2818 68.9309 41.135C68.9518 41.1215 69.0056 41.0736 69.025 41.0586L69.4418 40.7964C69.6091 40.6931 69.5911 40.6826 69.7226 40.5672C70.1438 40.1928 72.5294 38.5599 72.964 38.4581C72.9386 38.5644 71.4882 41.1245 73.8364 40.5238C74.6057 40.3276 75.4228 39.5022 76.6133 39.2235C76.4759 39.8153 76.2742 39.6879 76.2742 40.5852C77.2377 41.096 77.7426 40.6781 78.485 40.2497C78.9152 40.001 80.0519 39.3329 80.5165 39.2235C80.2894 39.6535 80.2102 40.1598 80.0071 40.5852L80.2804 40.8219C81.0467 40.8399 81.0004 40.6347 81.4277 40.2212C81.6383 40.0175 81.7339 39.9905 81.9385 39.7973L83.4487 38.5899C83.7161 38.3862 84.2912 37.9413 84.5884 37.8619C84.5795 38.2484 84.4002 38.9734 84.3001 39.3599C84.1074 40.0984 84.0462 40.1972 84.4196 40.7545C85.1053 40.7545 85.2696 40.7155 85.7506 40.4729C86.248 40.2212 86.5841 39.9291 86.8799 39.9036C86.8858 40.1808 86.8933 40.2152 87.0531 40.3246C87.207 40.4294 87.2981 40.4145 87.552 40.4204C88.6679 40.4459 88.9636 40.1913 89.8464 39.5591C90.0675 39.4003 89.9958 39.3808 90.2737 39.3059C90.2259 39.5112 90.0347 39.9201 89.9495 40.0879C89.7344 40.5103 89.8255 40.2137 89.2893 40.6167C87.564 41.9169 84.1911 44.5819 83.7714 46.8259C83.3382 49.1448 86.7066 47.7951 88.7306 44.8201C89.0667 44.3242 89.2684 43.8838 89.5791 43.373C89.9376 42.7828 90.1631 42.1401 90.3737 41.7881C91.4253 40.031 90.3723 40.744 92.6338 39.3748C93.1327 39.0723 93.5599 38.8191 94.0678 38.515C94.4143 38.3068 94.4427 38.1525 94.746 38.0042C95.1806 37.793 95.1717 37.9368 95.4495 37.5188C94.9103 37.5308 93.905 38.0356 93.4703 38.2558L91.5478 39.1352C91.6614 38.6438 91.8869 38.2918 91.8869 37.6896C90.8801 37.014 91.4612 37.7241 88.883 39.2715C88.6679 39.4003 88.5469 39.4512 88.3422 39.5801C88.1152 39.7224 88.0465 39.7913 87.7313 39.8183C87.912 39.4752 88.0435 39.1516 88.3034 38.861C88.9158 38.1765 89.6582 37.4949 90.4335 36.9975C90.6546 36.8567 90.7576 36.8343 90.786 36.5002C90.1736 36.5002 89.6239 36.8313 89.1235 37.1294C88.8546 37.2896 88.7291 37.4215 88.5185 37.6282C88.2795 37.8619 88.1271 37.9293 87.8807 38.1794L86.9486 39.2011C86.3555 39.5801 85.7028 39.7838 85.1038 40.0729C85.1232 39.1981 85.6132 37.9458 85.6132 37.2657C84.9066 36.8912 84.6437 36.9301 83.5413 37.6552C82.8915 38.0821 82.4031 38.5584 81.7951 38.9674L82.4061 37.5323C82.536 37.2043 82.4628 37.3331 82.3881 37.011C81.4038 36.7818 81.6308 37.0545 81.2992 37.7061C80.8974 38.494 80.9392 38.6049 80.4283 38.7891C79.9264 38.9704 79.4395 39.1082 78.9809 39.2955C78.4984 39.4917 78.0951 39.6924 77.5514 39.8198C77.5842 39.4228 77.9129 39.0018 78.1085 38.6768C78.3864 38.2094 78.7464 37.9323 78.5701 37.5233C78.4999 37.2597 78.3669 37.1833 78.0846 37.2162C77.7814 37.2522 77.6963 37.42 77.5648 37.6207C77.3019 38.0222 77.0973 38.3757 76.8732 38.7996C75.239 38.7996 75.1165 39.5231 73.4794 39.9066C73.5272 39.3314 73.8932 38.7727 74.1665 38.2933C74.2487 38.148 74.2651 38.169 74.3174 38.0162C74.4115 37.745 74.3488 37.7076 74.1949 37.5713C73.702 37.1309 72.625 37.6641 72.1544 37.9817C71.8109 38.2139 71.5763 38.3787 71.2597 38.6169C70.9281 38.8655 70.6786 39.0812 70.3395 39.3089C70.4306 38.918 70.6965 38.2469 70.8758 37.8903C71.1133 37.4185 71.3224 37.0634 71.5435 36.6036L72.8684 34.018C73.0567 33.7079 73.6004 32.9515 73.0313 32.7687C72.4562 32.5844 72.0917 33.2555 71.9199 33.5776C71.7944 33.8128 71.7153 33.9341 71.5749 34.1678C71.1656 34.8539 71.3164 34.6322 71.0924 34.7056C70.9191 34.7625 69.4746 34.8839 69.2341 34.8839C69.3193 34.5648 70.8818 32.0751 70.931 31.4804C69.8839 30.9247 69.6389 31.5538 69.379 32.1365C68.9742 33.0458 68.435 33.8967 68.0974 34.7655C67.8031 35.522 67.6239 35.152 66.2108 35.5115C65.7522 35.6284 65.67 35.7946 65.67 36.3309C66.0808 36.3309 65.9165 36.3309 66.1705 36.2366L67.6209 35.8201C67.5103 36.2995 67.2385 36.68 67.1967 37.1818C66.7037 37.1818 66.1779 37.1488 65.7044 37.2177C63.779 37.4964 64.5781 37.2147 63.8536 37.0455C62.5541 36.7429 62.6407 36.8462 62.2105 37.2881C61.9611 37.5443 61.6728 37.7855 61.4606 38.0671C61.0304 38.6393 61.0633 38.8685 60.9199 39.0573C60.7601 39.267 60.6107 39.2041 59.9266 39.5936C59.5457 39.8093 59.1677 39.8976 58.7958 40.0759C58.8152 39.2011 59.3052 37.9488 59.3052 37.2687C58.5986 36.8942 58.3357 36.9331 57.2333 37.6581C56.5835 38.0851 56.0936 38.5614 55.4871 38.9704L56.0981 37.5353C56.228 37.2073 56.1548 37.3361 56.0801 37.014C55.1988 36.8088 55.4393 36.7653 54.6103 38.4326C53.9874 39.6879 53.9441 40.0909 53.7051 40.5882L53.9784 40.8249C54.7447 40.8429 54.6984 40.6377 55.1256 40.2242C55.3348 40.0205 55.4319 39.9935 55.6365 39.8003C55.8501 39.5995 55.8755 39.5486 56.1279 39.3584C56.5731 39.0228 57.9608 37.9518 58.2864 37.8649M61.7654 40.1598C61.7654 38.8476 63.1815 37.5218 63.2083 37.5218C63.5011 37.5218 63.537 37.5847 63.8029 37.6072C63.8029 38.2828 63.6027 38.6648 63.1605 39.261C63.0037 39.4737 62.7916 39.6145 62.566 39.7703C62.2329 39.9995 62.097 40.001 61.7669 40.1598H61.7654ZM84.5048 47.1374C84.5048 45.8477 85.301 45.22 85.9702 44.5234C86.2256 44.2568 86.3182 44.0681 86.602 43.7969C86.8589 43.5513 87.0188 43.4704 87.2832 43.2022C87.5356 42.9446 87.7343 42.8172 88.0047 42.5656C88.3273 42.2645 89.1802 41.5155 89.5104 41.4376C89.47 41.9244 86.7872 47.088 84.5048 47.1389V47.1374Z" fill="white"/>
<path d="M101.981 6.72168H96.7217V25.2698H101.981V6.72168Z" fill="white"/>
<path fill-rule="evenodd" clip-rule="evenodd" d="M45.6465 6.68556C47.0939 6.63313 48.3606 6.59119 49.7379 6.86832C51.1181 7.14545 51.9173 7.69072 53.3677 7.69221C55.7965 7.69521 55.3484 6.51779 61.0889 6.68406C60.8111 6.11932 60.1986 5.44672 59.7535 4.99882C56.043 1.27781 50.6147 1.33773 47.0267 4.95538L46.3052 5.7628C46.0901 6.00248 45.7839 6.40694 45.648 6.68406" fill="#FDE300"/>
<path fill-rule="evenodd" clip-rule="evenodd" d="M115.386 38.7977C115.062 39.283 114.623 39.5452 114.623 40.3286C115.349 40.7136 115.829 40.6073 116.519 40.2732C117.696 39.7055 117.47 39.5976 118.017 39.307C118.017 39.7759 117.971 40.0575 118.268 40.2462C119.213 40.8484 120.152 39.7175 120.816 39.5617C120.78 40.0021 120.5 40.0979 120.731 40.5833C121.472 40.9398 121.693 40.2972 121.866 39.7639C122.313 38.3797 123.85 37.8989 125.114 37.4899C125.486 37.3701 125.641 37.3686 125.737 37.0091C125.345 36.9177 124.66 37.0181 124.159 37.1289C123.547 37.2652 123.23 37.4435 122.767 37.6892C122.894 37.1454 123.076 37.2173 122.987 36.9566C122.912 36.7409 122.64 36.723 122.44 36.7484C122.391 36.7544 122.183 36.7349 121.978 36.9821L121.615 37.809C121.105 39.1078 121.073 38.91 119.575 39.5916C119.276 39.7279 119.357 39.7294 118.949 39.7294C119.037 38.6704 119.697 38.4651 119.712 37.7716C119.484 37.6622 119.303 37.6023 118.949 37.6023L118.299 38.3108C117.627 38.7153 116.202 39.7489 115.557 39.9002C115.854 39.4538 115.778 39.5017 116.156 39.1407L117.179 38.2959C117.887 37.7596 118.755 37.4525 119.29 37.093C119.19 36.9027 119.148 36.8368 119.034 36.6675C118.37 36.6675 118.492 36.5881 118.048 36.8698L116.492 37.7775C116.095 37.8899 115.911 37.9244 115.53 38.0891C114.947 38.3438 114.427 38.6554 113.848 38.8696C113.156 39.1257 112.508 39.1347 111.567 39.1347C112.193 38.5895 112.151 38.8816 113.046 37.7251C113.288 37.4135 113.454 37.2263 113.707 36.9432L114.378 36.0833C115.213 35.0512 115.504 34.6273 116.199 33.4843C116.407 33.1428 116.668 32.8042 116.431 32.4791C116.092 32.0163 115.074 31.859 114.306 32.5211C113.667 33.0739 112.711 34.1584 112.217 34.8505L112.108 34.9958C112.097 35.0093 112.079 35.0272 112.067 35.0407C111.933 35.1995 112.02 35.0692 111.879 35.2774C111.071 36.4758 111.09 36.5851 110.478 37.6158C110.326 37.8719 110.382 37.797 110.269 38.0876L108.733 41.7382C108.352 42.8303 106.99 47.3857 109.609 46.6172C110.061 46.4854 110.184 46.424 110.571 46.0495C111.571 45.0788 111.816 44.7177 112.276 43.3366C112.556 42.4977 112.645 41.6978 112.451 40.799C112.332 40.2507 112.091 40.1069 111.99 39.7294C112.958 39.7294 113.107 39.7399 113.831 39.4493C114.117 39.3355 114.366 39.2875 114.644 39.1572C114.895 39.0389 115.116 38.8651 115.383 38.7932M111.229 38.543C111.322 38.1476 111.821 37.2278 112.054 36.9027L114.027 33.9472C114.272 33.6221 114.967 32.9555 115.386 32.8432C114.227 35.2669 113.454 35.971 111.848 37.8884C111.598 38.185 111.556 38.3243 111.229 38.543ZM109.447 46.2008C108.476 45.2765 109.346 43.064 109.649 42.1487C109.822 41.6274 109.93 41.3622 110.125 40.9248C110.341 40.4455 110.266 40.4335 110.635 39.7339C112.282 40.8394 111.58 42.7778 110.938 44.2084C110.645 44.8601 110.057 45.7918 109.446 46.2008H109.447Z" fill="white"/>
<path fill-rule="evenodd" clip-rule="evenodd" d="M0 39.309H51.3299C51.3851 39.1023 51.5644 38.8266 51.6689 38.6289H0V39.309Z" fill="#FFE400"/>
<path d="M102.152 0H96.5518V4.67973H102.152V0Z" fill="white"/>
<path fill-rule="evenodd" clip-rule="evenodd" d="M98.7585 39.8196C98.8332 38.9223 100.043 38.1419 99.7772 37.5217C99.713 37.279 99.6996 37.2461 99.4187 37.2131C99.2186 37.1891 99.0438 37.2775 98.9123 37.4183C98.754 37.5891 98.4866 38.0775 98.3507 38.3037C98.0594 38.786 97.4873 39.7852 97.4873 40.4158C97.4873 40.7738 98.2222 40.8413 98.2506 40.8413C98.984 40.8413 101.033 39.4092 101.529 39.2818C101.876 39.1935 101.782 39.3942 102.067 39.3942C102.819 39.3942 103.171 39.2234 104.018 39.2234C103.951 39.2818 103.981 39.2669 103.867 39.3283C103.746 39.3942 103.782 39.3732 103.633 39.4331C102.926 39.7193 100.793 40.5312 100.793 41.3506C100.793 41.5798 100.833 41.5843 100.878 41.776C101.762 41.9827 102.308 41.7835 103.219 41.2307C103.468 41.0794 103.637 40.9521 103.881 40.7888C105.675 39.5889 104.601 39.6728 105.418 39.4376C105.6 39.3852 105.76 39.3567 105.893 39.3193C106.438 39.1605 107.221 39.0392 107.494 38.6287C106.997 38.2827 106.481 38.5299 105.663 38.7501C104.627 39.0272 105.01 38.6287 104.185 38.6287L102.574 38.7141C102.717 38.4999 102.892 38.4085 103.131 38.2512C103.468 38.0295 103.51 38.0655 103.897 37.9127C104.132 37.8213 104.862 37.5517 104.931 37.318C105.04 36.948 104.684 37.0109 104.356 37.0109C103.576 37.0109 102.175 37.9756 101.707 38.5239C101.201 39.1171 101.414 38.8025 100.308 39.2459C99.7742 39.4601 99.3425 39.6818 98.757 39.8181M101.643 41.2667C101.78 41.06 102.357 40.6076 102.63 40.4698C103.075 40.2466 103.528 40.1207 103.934 39.905C103.869 40.1507 103.91 40.0204 103.767 40.1627L102.974 40.7289C102.618 40.9177 102.075 41.2307 101.644 41.2667H101.643Z" fill="white"/>
<path fill-rule="evenodd" clip-rule="evenodd" d="M56.3712 11.9466C56.6252 11.3294 55.6841 9.92283 56.5893 9.01804C56.9762 8.63156 57.4632 8.79784 57.9875 8.63006C58.6403 8.42034 58.5088 7.90803 57.5259 7.96196C56.44 8.02188 55.2718 8.24808 55.2823 9.44347C55.2853 9.78502 55.584 12.2672 56.3712 11.9466Z" fill="#FDE300"/>
<path fill-rule="evenodd" clip-rule="evenodd" d="M44.8904 7.99786L44.039 10.131C43.9569 10.3093 44.0091 10.2074 43.9479 10.2958C43.9464 10.8141 43.8986 11.8867 44.4573 12.002C44.874 11.5586 44.4603 10.164 44.7306 9.45841C45.0548 8.61054 45.8136 8.81127 46.6038 8.54014L46.6277 7.96491C46.2184 7.85256 45.2504 7.70126 44.889 7.99636" fill="#FDE300"/>
<path fill-rule="evenodd" clip-rule="evenodd" d="M79.3285 35.8198C79.3285 34.9824 78.2335 35.673 78.1663 36.2827C78.0707 37.171 79.3285 36.2482 79.3285 35.8198Z" fill="white"/>
<path fill-rule="evenodd" clip-rule="evenodd" d="M100.538 35.8198C100.538 34.9824 99.4435 35.673 99.3763 36.2827C99.2807 37.171 100.538 36.2482 100.538 35.8198Z" fill="white"/>
<path fill-rule="evenodd" clip-rule="evenodd" d="M48.0769 8.24347C47.941 7.73565 47.0417 7.74014 46.9925 8.17606C46.9282 8.75578 47.8514 8.56254 48.0769 8.24347Z" fill="#FDE300"/>
<path fill-rule="evenodd" clip-rule="evenodd" d="M58.8034 8.49226C59.2501 8.58364 59.7355 8.55368 59.7968 8.08031C59.5309 7.89456 59.2291 7.82565 58.8124 7.93201C58.7302 8.12226 58.7287 8.28853 58.8034 8.49226Z" fill="#FDE300"/>
<path fill-rule="evenodd" clip-rule="evenodd" d="M52.748 10.7209C53.238 10.6205 53.5084 10.5711 54.0073 10.7209L53.7235 10.1367C53.0812 10.0109 52.884 10.1801 52.748 10.7209Z" fill="#FDE300"/>
<path fill-rule="evenodd" clip-rule="evenodd" d="M125.972 5.93653V6.16273C125.972 6.51026 126.096 6.91622 126.214 7.15141L126.378 7.44951C126.545 7.73562 126.94 8.11461 127.237 8.28089C127.589 8.47713 128.006 8.63592 128.427 8.63592C128.758 8.63592 128.876 8.64191 129.207 8.55652C129.472 8.48911 129.633 8.40522 129.857 8.28389C129.926 8.24644 129.981 8.20449 130.042 8.16255C130.52 7.83599 130.904 7.27574 131.049 6.7095C131.197 6.13127 131.148 5.47066 130.883 4.94187C130.776 4.72615 130.774 4.73364 130.656 4.55388C130.575 4.43105 130.477 4.32319 130.374 4.22133C130.136 3.98315 129.945 3.85732 129.655 3.71051C129.418 3.59217 129.017 3.46484 128.663 3.46484H128.438C127.695 3.46484 126.856 3.93521 126.445 4.55538C126.423 4.58984 126.402 4.61231 126.382 4.64676L126.218 4.94336C126.1 5.18005 125.973 5.58301 125.973 5.93803M126.494 6.10131C126.49 6.08334 126.503 5.89009 126.506 5.85714C126.514 5.78823 126.526 5.70584 126.539 5.63394C126.553 5.56803 126.572 5.49163 126.593 5.43021C126.733 5.00628 126.984 4.64526 127.349 4.38162C127.422 4.32919 127.588 4.22433 127.669 4.18987C127.875 4.10149 128.027 4.04607 128.259 4.01311C128.553 3.96967 128.884 3.99214 129.168 4.08651C129.292 4.12845 129.418 4.17489 129.527 4.23931C129.587 4.27526 129.631 4.29923 129.687 4.33668C129.791 4.40708 129.887 4.48198 129.976 4.57036C130.066 4.66024 130.139 4.73964 130.215 4.8445C130.253 4.89693 130.283 4.94336 130.316 5.00029C130.347 5.05272 130.381 5.10814 130.407 5.16507C130.462 5.29389 130.504 5.39426 130.541 5.54406C130.617 5.85414 130.626 6.15224 130.563 6.46832C130.45 7.03756 130.087 7.5274 129.6 7.82101C129.37 7.96032 129.118 8.0487 128.844 8.08915C128.722 8.10712 128.493 8.11761 128.359 8.10263C128.29 8.09514 128.209 8.08316 128.136 8.06967C127.997 8.04121 127.866 7.99627 127.748 7.94684C127.516 7.84947 127.289 7.69667 127.126 7.53339C126.792 7.19784 126.59 6.82484 126.518 6.34698C126.512 6.30803 126.505 6.2616 126.503 6.22864C126.499 6.14326 126.512 6.20617 126.493 6.10581L126.494 6.10131Z" fill="white"/>
<path fill-rule="evenodd" clip-rule="evenodd" d="M127.414 7.32223C127.414 7.3462 127.422 7.35219 127.445 7.35219H128.089C128.113 7.35219 128.121 7.3447 128.121 7.32223V6.32607C128.403 6.32607 128.488 6.29311 128.655 6.46688C128.758 6.57323 129.027 7.18891 129.112 7.35219H129.849C129.844 7.29976 129.792 7.22336 129.77 7.17393C129.738 7.10652 129.716 7.05409 129.685 6.99267C129.595 6.81291 129.426 6.4489 129.317 6.30509C129.245 6.21072 129.144 6.11036 129.009 6.0789C129.024 6.06841 129.133 6.02946 129.202 5.98452C129.384 5.86618 129.511 5.68492 129.511 5.43176C129.511 5.15763 129.472 4.93443 129.219 4.78164C129.05 4.68127 128.805 4.63184 128.54 4.63184H127.416V7.32073L127.414 7.32223ZM128.469 5.83472H128.121V5.14715C128.452 5.14715 128.817 5.09172 128.817 5.48569C128.817 5.72237 128.687 5.83472 128.469 5.83472Z" fill="white"/>
</svg>
